<svg version="1.1" xmlns="http://www.w3.org/2000/svg" xmlns:xlink="http://www.w3.org/1999/xlink" width="24" height="24" viewBox="0,0,256,256"><g fill="#737373" fill-rule="nonzero" stroke="none" stroke-width="1" stroke-linecap="butt" stroke-linejoin="miter" stroke-miterlimit="10" stroke-dasharray="" stroke-dashoffset="0" font-family="none" font-weight="none" font-size="none" text-anchor="none" style="mix-blend-mode: normal"><g transform="translate(-0.0016,0.00167)"><g><g transform="translate(0,261.33333) scale(0.26667,0.26667)"><path d="M480,-320c50,0 92.5,-17.5 127.5,-52.5c35,-35 52.5,-77.5 52.5,-127.5c0,-50 -17.5,-92.5 -52.5,-127.5c-35,-35 -77.5,-52.5 -127.5,-52.5c-50,0 -92.5,17.5 -127.5,52.5c-35,35 -52.5,77.5 -52.5,127.5c0,50 17.5,92.5 52.5,127.5c35,35 77.5,52.5 127.5,52.5zM480,-392c-30,0 -55.5,-10.5 -76.5,-31.5c-21,-21 -31.5,-46.5 -31.5,-76.5c0,-30 10.5,-55.5 31.5,-76.5c21,-21 46.5,-31.5 76.5,-31.5c30,0 55.5,10.5 76.5,31.5c21,21 31.5,46.5 31.5,76.5c0,30 -10.5,55.5 -31.5,76.5c-21,21 -46.5,31.5 -76.5,31.5zM480,-200c-97.33333,0 -186,-27.16667 -266,-81.5c-80,-54.33333 -138,-127.16667 -174,-218.5c36,-91.33333 94,-164.16667 174,-218.5c80,-54.33333 168.66667,-81.5 266,-81.5c97.33333,0 186,27.16667 266,81.5c80,54.33333 138,127.16667 174,218.5c-36,91.33333 -94,164.16667 -174,218.5c-80,54.33333 -168.66667,81.5 -266,81.5zM480,-500zM480,-280c75.33333,0 144.5,-19.83333 207.5,-59.5c63,-39.66667 111.16667,-93.16667 144.5,-160.5c-33.33333,-67.33333 -81.5,-120.83333 -144.5,-160.5c-63,-39.66667 -132.16667,-59.5 -207.5,-59.5c-75.33333,0 -144.5,19.83333 -207.5,59.5c-63,39.66667 -111.16667,93.16667 -144.5,160.5c33.33333,67.33333 81.5,120.83333 144.5,160.5c63,39.66667 132.16667,59.5 207.5,59.5z"></path></g></g></g></g></svg>