<svg version="1.1" xmlns="http://www.w3.org/2000/svg" xmlns:xlink="http://www.w3.org/1999/xlink" width="24" height="24" viewBox="0,0,256,256"><g fill="#737373" fill-rule="nonzero" stroke="none" stroke-width="1" stroke-linecap="butt" stroke-linejoin="miter" stroke-miterlimit="10" stroke-dasharray="" stroke-dashoffset="0" font-family="none" font-weight="none" font-size="none" text-anchor="none" style="mix-blend-mode: normal"><g transform="translate(-0.0016,0.00151)"><g><g transform="translate(0,248.53333) scale(0.26667,0.26667)"><path d="M644,-428l-58,-58c6,-31.33333 -3,-60.66667 -27,-88c-24,-27.33333 -55,-38 -93,-32l-58,-58c11.33333,-5.33333 22.83333,-9.33333 34.5,-12c11.66667,-2.66667 24.16667,-4 37.5,-4c50,0 92.5,17.5 127.5,52.5c35,35 52.5,77.5 52.5,127.5c0,13.33333 -1.33333,25.83333 -4,37.5c-2.66667,11.66667 -6.66667,23.16667 -12,34.5zM772,-302l-58,-56c25.33333,-19.33333 47.83333,-40.5 67.5,-63.5c19.66667,-23 36.5,-49.16667 50.5,-78.5c-33.33333,-67.33333 -81.16667,-120.83333 -143.5,-160.5c-62.33333,-39.66667 -131.83333,-59.5 -208.5,-59.5c-19.33333,0 -38.33333,1.33333 -57,4c-18.66667,2.66667 -37,6.66667 -55,12l-62,-62c27.33333,-11.33333 55.33333,-19.83333 84,-25.5c28.66667,-5.66667 58.66667,-8.5 90,-8.5c100.66667,0 190.33333,27.83333 269,83.5c78.66667,55.66667 135.66667,127.83333 171,216.5c-15.33333,39.33333 -35.5,75.83333 -60.5,109.5c-25,33.66667 -54.16667,63.16667 -87.5,88.5zM792,-56l-168,-166c-23.33333,7.33333 -46.83333,12.83333 -70.5,16.5c-23.66667,3.66667 -48.16667,5.5 -73.5,5.5c-100.66667,0 -190.33333,-27.83333 -269,-83.5c-78.66667,-55.66667 -135.66667,-127.83333 -171,-216.5c14,-35.33333 31.66667,-68.16667 53,-98.5c21.33333,-30.33333 45.66667,-57.5 73,-81.5l-110,-112l56,-56l736,736zM222,-624c-19.33333,17.33333 -37,36.33333 -53,57c-16,20.66667 -29.66667,43 -41,67c33.33333,67.33333 81.16667,120.83333 143.5,160.5c62.33333,39.66667 131.83333,59.5 208.5,59.5c13.33333,0 26.33333,-0.83333 39,-2.5c12.66667,-1.66667 25.66667,-3.5 39,-5.5l-36,-38c-7.33333,2 -14.33333,3.5 -21,4.5c-6.66667,1 -13.66667,1.5 -21,1.5c-50,0 -92.5,-17.5 -127.5,-52.5c-35,-35 -52.5,-77.5 -52.5,-127.5c0,-7.33333 0.5,-14.33333 1.5,-21c1,-6.66667 2.5,-13.66667 4.5,-21zM541,-531zM390,-456z"></path></g></g></g></g></svg>